<svg viewBox="0 0 64 64">
  <circle cx="43" cy="33" r="5" fill="#f25b22"/>
  <circle cx="22" cy="33" r="5" fill="#f25b22"/>
  <circle cx="46" cy="5" r="4" fill="#afb6bb"/>
  <path d="M60 23c0 1.84-.62 3.53-1.66 4.88-3.17-3.8-7.8-6.86-13.31-8.75l.04-.13c1.38-2.39 3.97-4 6.93-4 4.42 0 8 3.58 8 8zM12 15c3.01 0 5.63 1.67 7 4.12-5.52 1.89-10.16 4.95-13.34 8.75C4.61 26.53 4 24.84 4 23c0-4.42 3.58-8 8-8z" fill="#afb6bb"/>
  <path d="M58.34 27.88C61.3 31.4 63 35.55 63 40c0 12.7-13.88 23-31 23S1 52.7 1 40c0-4.45 1.71-8.61 4.66-12.13 3.18-3.8 7.82-6.86 13.34-8.75C22.95 17.76 27.36 17 32 17c4.65 0 9.07.76 13.03 2.13 5.51 1.89 10.14 4.95 13.31 8.75zM48 33c0-2.76-2.24-5-5-5s-5 2.24-5 5 2.24 5 5 5 5-2.24 5-5zm-21 0c0-2.76-2.24-5-5-5s-5 2.24-5 5 2.24 5 5 5 5-2.24 5-5z" fill="#e7eced"/>
  <g fill="none" stroke="#000" stroke-width="2" stroke-linejoin="round" stroke-miterlimit="10">
    <path d="M58.34 27.88C61.3 31.4 63 35.55 63 40c0 12.7-13.88 23-31 23S1 52.7 1 40c0-4.45 1.71-8.61 4.66-12.13 3.18-3.8 7.82-6.86 13.34-8.75C22.95 17.76 27.36 17 32 17c4.65 0 9.07.76 13.03 2.13 5.51 1.89 10.14 4.95 13.31 8.75z"/>
    <circle cx="22" cy="33" r="5"/>
    <circle cx="43" cy="33" r="5"/>
    <path d="M48.16 43c-3.35 5.4-9.34 9-16.16 9s-12.81-3.6-16.16-9M6 28.29c-.12-.13-.23-.27-.34-.42C4.61 26.53 4 24.84 4 23c0-4.42 3.58-8 8-8 3.01 0 5.63 1.67 7 4.12v.01M45.07 19c1.38-2.39 3.97-4 6.93-4 4.42 0 8 3.58 8 8 0 1.84-.62 3.53-1.66 4.88l-.09.12M32 17S31 5 42 5"/>
    <circle cx="46" cy="5" r="4"/>
  </g>
</svg>
